<?xml version="1.0" encoding="utf-8"?>
<!-- Generator: Adobe Illustrator 17.1.0, SVG Export Plug-In . SVG Version: 6.00 Build 0)  -->
<!DOCTYPE svg PUBLIC "-//W3C//DTD SVG 1.1//EN" "http://www.w3.org/Graphics/SVG/1.1/DTD/svg11.dtd">
<svg version="1.1" id="Layer_1" xmlns="http://www.w3.org/2000/svg" xmlns:xlink="http://www.w3.org/1999/xlink" x="0px" y="0px"
	 viewBox="0 0 17 17" enable-background="new 0 0 17 17" xml:space="preserve" width='17' height='17'>
<g id="search">
	<g>
		<path fill-rule="evenodd" clip-rule="evenodd" fill="#E8E9EA" d="M16.8,15.7l-3.3-3.3c1.1-1.3,1.7-3,1.7-4.8
			c0-4.2-3.4-7.6-7.6-7.6C3.4,0,0,3.4,0,7.6c0,4.2,3.4,7.6,7.6,7.6c1.8,0,3.5-0.6,4.8-1.7l3.3,3.3c0.3,0.3,0.8,0.3,1.1,0
			C17.1,16.5,17.1,16,16.8,15.7z M7.6,13.7c-3.4,0-6.1-2.7-6.1-6.1s2.7-6.1,6.1-6.1c3.3,0,6.1,2.7,6.1,6.1S10.9,13.7,7.6,13.7z"/>
	</g>
</g>
</svg>
